<svg width="22" height="22" viewBox="0 0 22 22" fill="none" xmlns="http://www.w3.org/2000/svg">
<path fill-rule="evenodd" clip-rule="evenodd" d="M9.75 8.75C9.05964 8.75 8.5 9.30964 8.5 10V19C8.5 19.6904 9.05964 20.25 9.75 20.25H18.75C19.4404 20.25 20 19.6904 20 19V10C20 9.30964 19.4404 8.75 18.75 8.75H9.75ZM7 10C7 8.48122 8.23122 7.25 9.75 7.25H18.75C20.2688 7.25 21.5 8.48122 21.5 10V19C21.5 20.5188 20.2688 21.75 18.75 21.75H9.75C8.23122 21.75 7 20.5188 7 19V10Z" fill="#5A7390"/>
<path fill-rule="evenodd" clip-rule="evenodd" d="M2.75 1.75C2.41848 1.75 2.10054 1.8817 1.86612 2.11612C1.6317 2.35054 1.5 2.66848 1.5 3V12C1.5 12.3315 1.6317 12.6495 1.86612 12.8839C2.10054 13.1183 2.41848 13.25 2.75 13.25H3.75C4.16421 13.25 4.5 13.5858 4.5 14C4.5 14.4142 4.16421 14.75 3.75 14.75H2.75C2.02065 14.75 1.32118 14.4603 0.805456 13.9445C0.289731 13.4288 0 12.7293 0 12V3C0 2.27065 0.289731 1.57118 0.805456 1.05546C1.32118 0.539731 2.02065 0.25 2.75 0.25H11.75C12.4793 0.25 13.1788 0.539731 13.6945 1.05546C14.2103 1.57118 14.5 2.27065 14.5 3V4C14.5 4.41421 14.1642 4.75 13.75 4.75C13.3358 4.75 13 4.41421 13 4V3C13 2.66848 12.8683 2.35054 12.6339 2.11612C12.3995 1.8817 12.0815 1.75 11.75 1.75H2.75Z" fill="#5A7390"/>
</svg>
