<svg width="14" height="14" viewBox="0 0 14 14" fill="none" xmlns="http://www.w3.org/2000/svg">
<path fill-rule="evenodd" clip-rule="evenodd" d="M7.34085 1.51574C6.00414 1.4321 4.68287 1.8393 3.62514 2.66089C2.56742 3.48248 1.846 4.66194 1.59636 5.97779C1.34725 7.29085 1.585 8.64959 2.26498 9.79993C2.33691 9.9167 2.35967 10.0612 2.32011 10.1997L1.72802 12.272L3.80031 11.6799C3.93674 11.6409 4.08156 11.6621 4.19976 11.7348C5.35018 12.415 6.70905 12.6528 8.02223 12.4036C9.33808 12.154 10.5175 11.4326 11.3391 10.3748C12.1607 9.31711 12.5679 7.99584 12.4843 6.65913C12.4006 5.32242 11.8318 4.06222 10.8848 3.11518C9.93775 2.16814 8.67756 1.59939 7.34085 1.51574ZM3.87267 12.6992C5.19248 13.4232 6.72522 13.6676 8.20863 13.3861C9.76384 13.091 11.1578 12.2384 12.1289 10.9883C13.0999 9.73814 13.5812 8.17652 13.4823 6.59667C13.3834 5.01681 12.7112 3.52738 11.5919 2.40807C10.4726 1.28876 8.98316 0.61656 7.4033 0.517697C5.82344 0.418834 4.26183 0.900108 3.01171 1.87115C1.76158 2.84218 0.90894 4.23619 0.613886 5.7914C0.332454 7.2748 0.576776 8.80753 1.30076 10.1273L0.766501 11.9972C0.717508 12.1687 0.715261 12.3502 0.759994 12.5228C0.804728 12.6954 0.894813 12.853 1.02092 12.9791C1.14702 13.1052 1.30455 13.1953 1.47719 13.24C1.64982 13.2847 1.83127 13.2825 2.00275 13.2335L3.87267 12.6992Z" fill="#A6B3C3"/>
</svg>
