<svg width="20" height="20" viewBox="0 0 20 20" fill="none" xmlns="http://www.w3.org/2000/svg">
<path fill-rule="evenodd" clip-rule="evenodd" d="M10.5112 1.77363C8.50618 1.64816 6.52427 2.25897 4.93769 3.49135C3.3511 4.72373 2.26898 6.49292 1.89451 8.4667C1.52084 10.4363 1.87747 12.4744 2.89744 14.1999C3.00533 14.3751 3.03948 14.5918 2.98013 14.7995L2.09201 17.908L1.37086 17.7019L2.09201 17.908L5.20044 17.0198C5.40508 16.9614 5.62231 16.9931 5.79961 17.1023C7.52523 18.1225 9.56355 18.4792 11.5333 18.1055C13.5071 17.731 15.2763 16.6489 16.5087 15.0623C17.741 13.4757 18.3518 11.4938 18.2263 9.4887C18.1009 7.48364 17.2477 5.59335 15.8272 4.17279C14.4066 2.75222 12.5163 1.8991 10.5112 1.77363ZM5.30897 18.5489C7.28869 19.6349 9.58781 20.0013 11.8129 19.5792C14.1457 19.1366 16.2367 17.8576 17.6933 15.9824C19.1498 14.1072 19.8717 11.7648 19.7234 9.39501C19.5751 7.02523 18.5668 4.79109 16.8878 3.11212C15.2089 1.43316 12.9747 0.424856 10.6049 0.276561C8.23514 0.128266 5.89272 0.850177 4.01753 2.30673C2.14235 3.76329 0.86338 5.8543 0.420798 8.18711C-0.00134969 10.4122 0.365134 12.7113 1.45112 14.691L0.64972 17.4959C0.576231 17.7531 0.572861 18.0253 0.639961 18.2842C0.707061 18.5432 0.842189 18.7795 1.03134 18.9686C1.2205 19.1578 1.4568 19.2929 1.71575 19.36C1.9747 19.4271 2.24688 19.4237 2.50409 19.3503L5.30897 18.5489Z" fill="#5A7390"/>
</svg>
