<svg width="12" height="16" viewBox="0 0 12 16" fill="none" xmlns="http://www.w3.org/2000/svg">
<path fill-rule="evenodd" clip-rule="evenodd" d="M0.666687 7.5C0.942829 7.5 1.16669 7.72385 1.16669 8V13.3333C1.16669 13.5543 1.25448 13.7663 1.41076 13.9226C1.56705 14.0789 1.77901 14.1667 2.00002 14.1667H10C10.221 14.1667 10.433 14.0789 10.5893 13.9226C10.7456 13.7663 10.8334 13.5543 10.8334 13.3333V8C10.8334 7.72385 11.0572 7.5 11.3334 7.5C11.6095 7.5 11.8334 7.72385 11.8334 8V13.3333C11.8334 13.8196 11.6402 14.2859 11.2964 14.6297C10.9526 14.9735 10.4863 15.1667 10 15.1667H2.00002C1.51379 15.1667 1.04747 14.9735 0.703658 14.6297C0.359841 14.2859 0.166687 13.8196 0.166687 13.3333V8C0.166687 7.72385 0.390545 7.5 0.666687 7.5Z" fill="#5A7390"/>
<path d="M5.80863 0.871268C5.74966 0.895668 5.69441 0.931837 5.64647 0.979775L2.9798 3.64644C2.78454 3.8417 2.78454 4.15829 2.9798 4.35355C3.17506 4.54881 3.49164 4.54881 3.68691 4.35355L5.50002 2.54044V10C5.50002 10.2761 5.72388 10.5 6.00002 10.5C6.27616 10.5 6.50002 10.2761 6.50002 10V2.54044L8.31313 4.35355C8.5084 4.54881 8.82498 4.54881 9.02024 4.35355C9.2155 4.15829 9.2155 3.8417 9.02024 3.64644L6.35357 0.979775C6.25594 0.882144 6.12798 0.833328 6.00002 0.833328C5.93222 0.833328 5.86758 0.846821 5.80863 0.871268Z" fill="#5A7390"/>
</svg>
